<svg width="1916" height="283" viewBox="0 0 1916 283" fill="none" xmlns="http://www.w3.org/2000/svg">
<path d="M151.402 86.5099C150.507 76.6662 146.525 69.0149 139.455 63.5561C132.475 58.0078 122.497 55.2337 109.521 55.2337C100.93 55.2337 93.7713 56.3523 88.044 58.5895C82.3168 60.8267 78.0213 63.9141 75.1577 67.8516C72.294 71.6996 70.8175 76.1293 70.728 81.1406C70.549 85.2571 71.3544 88.8814 73.1442 92.0135C75.0234 95.1456 77.7081 97.9197 81.1982 100.336C84.7777 102.663 89.0732 104.721 94.0845 106.511C99.0959 108.3 104.734 109.866 110.998 111.209L134.623 116.578C148.225 119.531 160.217 123.469 170.597 128.391C181.067 133.312 189.837 139.174 196.907 145.975C204.066 152.776 209.48 160.607 213.149 169.466C216.818 178.325 218.697 188.259 218.787 199.266C218.697 216.626 214.313 231.526 205.632 243.965C196.952 256.404 184.468 265.935 168.181 272.557C151.984 279.179 132.43 282.49 109.521 282.49C86.5227 282.49 66.4773 279.045 49.3849 272.154C32.2926 265.263 19.0036 254.793 9.51776 240.744C0.0319604 226.694 -4.84517 208.93 -5.11364 187.453H58.5128C59.0497 196.312 61.4212 203.695 65.6271 209.602C69.8331 215.508 75.6051 219.982 82.9432 223.025C90.3707 226.067 98.9617 227.589 108.716 227.589C117.665 227.589 125.271 226.381 131.536 223.964C137.889 221.548 142.766 218.192 146.167 213.897C149.567 209.602 151.313 204.68 151.402 199.131C151.313 193.941 149.702 189.511 146.57 185.842C143.438 182.084 138.605 178.862 132.072 176.178C125.629 173.403 117.396 170.853 107.374 168.526L78.6477 161.815C54.8438 156.356 36.0959 147.541 22.4041 135.371C8.71236 123.111 1.91122 106.555 2.00071 85.7045C1.91122 68.7017 6.47514 53.8018 15.6925 41.005C24.9098 28.2081 37.6619 18.2301 53.9489 11.071C70.2358 3.91193 88.8047 0.332376 109.656 0.332376C130.954 0.332376 149.433 3.95666 165.094 11.2052C180.844 18.3643 193.059 28.4318 201.739 41.4077C210.42 54.3835 214.849 69.4176 215.028 86.5099H151.402ZM252.345 279V4.0909H318.79V120.337H322.415L413.29 4.0909H491.548L394.095 126.78L493.293 279H413.827L345.369 170.942L318.79 204.501V279H252.345ZM584.203 4.0909V279H517.757V4.0909H584.203ZM859.884 4.0909V279H803.506L694.106 120.337H692.361V279H625.915V4.0909H683.099L791.29 162.486H793.572V4.0909H859.884ZM1151.2 103.692H1084.09C1083.19 96.8011 1081.36 90.5817 1078.58 85.0334C1075.81 79.4851 1072.14 74.7422 1067.58 70.8047C1063.01 66.8672 1057.6 63.8693 1051.33 61.8111C1045.16 59.6633 1038.31 58.5895 1030.8 58.5895C1017.46 58.5895 1005.96 61.8558 996.298 68.3885C986.722 74.9212 979.34 84.3622 974.149 96.7116C969.048 109.061 966.498 124.006 966.498 141.545C966.498 159.801 969.093 175.104 974.284 187.453C979.563 199.713 986.946 208.975 996.432 215.239C1006.01 221.414 1017.33 224.501 1030.39 224.501C1037.73 224.501 1044.4 223.562 1050.39 221.683C1056.48 219.803 1061.8 217.074 1066.37 213.494C1071.02 209.825 1074.82 205.396 1077.78 200.205C1080.82 194.925 1082.92 188.974 1084.09 182.352L1151.2 182.755C1150.04 194.925 1146.5 206.917 1140.6 218.729C1134.78 230.542 1126.77 241.325 1116.57 251.08C1106.37 260.744 1093.93 268.44 1079.25 274.168C1064.67 279.895 1047.93 282.759 1029.05 282.759C1004.17 282.759 981.89 277.3 962.203 266.382C942.605 255.375 927.123 239.357 915.758 218.327C904.393 197.297 898.71 171.703 898.71 141.545C898.71 111.298 904.482 85.6598 916.026 64.63C927.57 43.6001 943.186 27.6264 962.874 16.7088C982.561 5.79118 1004.62 0.332376 1029.05 0.332376C1045.7 0.332376 1061.09 2.65908 1075.23 7.3125C1089.37 11.8764 1101.8 18.5881 1112.54 27.4474C1123.28 36.2173 1132.01 47.0007 1138.72 59.7976C1145.43 72.5945 1149.59 87.2259 1151.2 103.692ZM1241.68 279H1170.26L1263.02 4.0909H1351.48L1444.23 279H1372.82L1308.26 73.3551H1306.11L1241.68 279ZM1232.15 170.808H1381.41V221.28H1232.15V170.808ZM1473.83 279V4.0909H1587.39C1607.97 4.0909 1625.74 7.80468 1640.68 15.2322C1655.72 22.5703 1667.31 33.13 1675.45 46.9112C1683.59 60.603 1687.66 76.8452 1687.66 95.6378C1687.66 114.699 1683.5 130.896 1675.18 144.23C1666.86 157.474 1655.05 167.587 1639.74 174.567C1624.44 181.457 1606.32 184.903 1585.38 184.903H1513.56V132.552H1573.03C1583.05 132.552 1591.42 131.254 1598.13 128.659C1604.93 125.974 1610.08 121.947 1613.57 116.578C1617.06 111.119 1618.8 104.139 1618.8 95.6378C1618.8 87.1364 1617.06 80.1115 1613.57 74.5632C1610.08 68.9254 1604.93 64.7195 1598.13 61.9453C1591.33 59.0817 1582.96 57.6499 1573.03 57.6499H1540.28V279H1473.83ZM1628.6 153.358L1697.06 279H1624.58L1557.46 153.358H1628.6ZM1724.11 279V4.0909H1915.79V58.0526H1790.55V114.43H1905.99V168.526H1790.55V225.038H1915.79V279H1724.11Z" fill="#2D3B36"/>
</svg>
