<svg width="1920" height="233" viewBox="0 0 1920 233" fill="none" xmlns="http://www.w3.org/2000/svg">
<path d="M77.2514 92.3935C76.0582 80.3622 70.9375 71.0156 61.8892 64.3537C52.8409 57.6917 40.5611 54.3608 25.0497 54.3608C14.5099 54.3608 5.6108 55.8523 -1.64772 58.8352C-8.90625 61.7187 -14.4744 65.7457 -18.3523 70.9162C-22.1307 76.0866 -24.0199 81.9531 -24.0199 88.5156C-24.2187 93.9844 -23.0753 98.7571 -20.5895 102.834C-18.0043 106.911 -14.4744 110.44 -10 113.423C-5.52557 116.307 -0.355111 118.842 5.51136 121.03C11.3778 123.118 17.6421 124.908 24.304 126.399L51.7472 132.962C65.071 135.945 77.3011 139.922 88.4375 144.893C99.5739 149.865 109.219 155.98 117.372 163.239C125.526 170.497 131.839 179.048 136.314 188.892C140.888 198.736 143.224 210.021 143.324 222.749C143.224 241.442 138.452 257.649 129.006 271.371C119.659 284.993 106.136 295.582 88.4375 303.139C70.8381 310.597 49.6094 314.325 24.7514 314.325C0.092333 314.325 -21.3849 310.547 -39.6804 302.99C-57.8764 295.433 -72.0952 284.247 -82.3366 269.432C-92.4787 254.517 -97.7983 236.072 -98.2955 214.098H-35.8026C-35.1065 224.339 -32.1733 232.891 -27.0028 239.751C-21.733 246.513 -14.723 251.634 -5.97301 255.114C2.87642 258.494 12.8693 260.185 24.0057 260.185C34.9432 260.185 44.4389 258.594 52.4929 255.412C60.6463 252.23 66.9602 247.805 71.4347 242.138C75.9091 236.47 78.1463 229.957 78.1463 222.599C78.1463 215.739 76.108 209.972 72.0312 205.298C68.054 200.625 62.1875 196.648 54.4318 193.366C46.7756 190.085 37.3793 187.102 26.2429 184.418L-7.01704 176.065C-32.7699 169.801 -53.1037 160.007 -68.0185 146.683C-82.9332 133.359 -90.3409 115.412 -90.2415 92.8409C-90.3409 74.3466 -85.419 58.1889 -75.4759 44.3679C-65.4332 30.5469 -51.6619 19.7585 -34.1619 12.0028C-16.6619 4.24715 3.22443 0.369307 25.4972 0.369307C48.1676 0.369307 67.9546 4.24715 84.858 12.0028C101.861 19.7585 115.085 30.5469 124.531 44.3679C133.977 58.1889 138.849 74.1974 139.148 92.3935H77.2514ZM186.763 310V4.54545H251.344V139.226H255.371L365.293 4.54545H442.701L329.348 141.314L444.043 310H366.784L283.113 184.418L251.344 223.196V310H186.763ZM540.914 4.54545V310H476.333V4.54545H540.914ZM849.538 4.54545V310H793.757L660.866 117.749H658.629V310H594.048V4.54545H650.724L782.571 196.648H785.256V4.54545H849.538ZM1172.41 111.484H1107.08C1105.89 103.033 1103.45 95.5256 1099.77 88.9631C1096.09 82.3011 1091.37 76.6335 1085.6 71.9602C1079.83 67.2869 1073.17 63.7074 1065.62 61.2216C1058.16 58.7358 1050.06 57.4929 1041.31 57.4929C1025.5 57.4929 1011.72 61.4205 999.991 69.2756C988.258 77.0312 979.16 88.3665 972.697 103.281C966.234 118.097 963.002 136.094 963.002 157.273C963.002 179.048 966.234 197.344 972.697 212.159C979.26 226.974 988.407 238.161 1000.14 245.717C1011.87 253.274 1025.45 257.053 1040.86 257.053C1049.51 257.053 1057.51 255.909 1064.87 253.622C1072.33 251.335 1078.94 248.004 1084.71 243.629C1090.47 239.155 1095.25 233.736 1099.03 227.372C1102.9 221.009 1105.59 213.75 1107.08 205.597L1172.41 205.895C1170.72 219.915 1166.49 233.438 1159.73 246.463C1153.07 259.389 1144.07 270.973 1132.73 281.214C1121.5 291.357 1108.07 299.411 1092.46 305.376C1076.95 311.243 1059.4 314.176 1039.81 314.176C1012.57 314.176 988.208 308.011 966.731 295.682C945.353 283.352 928.45 265.504 916.021 242.138C903.691 218.771 897.527 190.483 897.527 157.273C897.527 123.963 903.791 95.625 916.319 72.2585C928.848 48.892 945.851 31.0937 967.328 18.8636C988.805 6.53408 1012.97 0.369307 1039.81 0.369307C1057.51 0.369307 1073.92 2.8551 1089.03 7.8267C1104.25 12.7983 1117.72 20.0568 1129.45 29.6023C1141.18 39.0483 1150.73 50.6321 1158.09 64.3537C1165.55 78.0753 1170.32 93.7855 1172.41 111.484ZM1265.62 310H1196.42L1301.87 4.54545H1385.09L1490.39 310H1421.18L1344.67 74.3466H1342.29L1265.62 310ZM1261.3 189.936H1424.76V240.348H1261.3V189.936ZM1527.15 310V4.54545H1647.67C1670.73 4.54545 1690.42 8.67187 1706.73 16.9247C1723.13 25.0781 1735.61 36.6619 1744.16 51.6761C1752.81 66.5909 1757.14 84.1406 1757.14 104.325C1757.14 124.609 1752.76 142.06 1744.01 156.676C1735.26 171.193 1722.59 182.33 1705.98 190.085C1689.48 197.841 1669.49 201.719 1646.02 201.719H1565.34V149.815H1635.58C1647.91 149.815 1658.16 148.125 1666.31 144.744C1674.46 141.364 1680.53 136.293 1684.5 129.531C1688.58 122.77 1690.62 114.368 1690.62 104.325C1690.62 94.1832 1688.58 85.6321 1684.5 78.6719C1680.53 71.7116 1674.41 66.4417 1666.16 62.8622C1658.01 59.1832 1647.71 57.3438 1635.29 57.3438H1591.73V310H1527.15ZM1692.11 170.994L1768.03 310H1696.73L1622.46 170.994H1692.11ZM1802.78 310V4.54545H2008.6V57.7912H1867.36V130.575H1998.01V183.821H1867.36V256.754H2009.2V310H1802.78Z" fill="#3D4B46" fill-opacity="0.5"/>
</svg>
